<mxfile host="app.diagrams.net" modified="2024-01-24T19:03:40.207Z" agent="Mozilla/5.0 (X11; Linux x86_64) AppleWebKit/537.36 (KHTML, like Gecko) Chrome/120.0.0.0 Safari/537.36" version="23.0.1" etag="_EmnB1NQbkJNheDBA36c" type="github">
  <diagram name="PÃ¡gina-1" id="RSbwXVjQgja781QvU5cF">
    <mxGraphModel>
      <root>
        <mxCell id="0" />
        <mxCell id="1" parent="0" />
      </root>
    </mxGraphModel>
  </diagram>
</mxfile>
